<?xml version="1.0" standalone="no"?><!DOCTYPE svg PUBLIC "-//W3C//DTD SVG 1.1//EN" "http://www.w3.org/Graphics/SVG/1.1/DTD/svg11.dtd"><svg t="1620397292349" class="icon" viewBox="0 0 1024 1024" version="1.1" xmlns="http://www.w3.org/2000/svg" p-id="5543" xmlns:xlink="http://www.w3.org/1999/xlink" width="200" height="200"><defs><style type="text/css"></style></defs><path d="M512 320a51.2 51.2 0 0 1 51.2 51.2v136.192a51.2 51.2 0 0 1-102.4 0V371.2A51.2 51.2 0 0 1 512 320z" p-id="5544" fill="#707070"></path><path d="M460.8 608l102.4 0 0 102.4-102.4 0 0-102.4Z" p-id="5545" fill="#707070"></path><path d="M198.4 662.848a49.984 49.984 0 0 1-90.048 43.328 448 448 0 1 1 216.128 212.736 49.984 49.984 0 0 1 41.856-90.816 348.096 348.096 0 0 0 418.752-531.84A347.968 347.968 0 0 0 198.4 662.912z" p-id="5546" fill="#707070"></path></svg>