<?xml version="1.0" standalone="no"?><!DOCTYPE svg PUBLIC "-//W3C//DTD SVG 1.1//EN" "http://www.w3.org/Graphics/SVG/1.1/DTD/svg11.dtd"><svg t="1610874923863" class="icon" viewBox="0 0 1024 1024" version="1.1" xmlns="http://www.w3.org/2000/svg" p-id="1129" xmlns:xlink="http://www.w3.org/1999/xlink" width="200" height="200"><defs><style type="text/css"></style></defs><path d="M944 774.72l-48-17.76A160 160 0 0 0 896 736v-7.04l50.24-13.44a16 16 0 0 0 11.36-19.52l-9.6-35.68a16 16 0 0 0-20-11.52l-50.08 13.44a160 160 0 0 0-15.2-23.68L896 598.88a16 16 0 0 0-1.92-22.88l-28.32-23.68a16 16 0 0 0-22.56 1.92l-33.28 39.68a158.72 158.72 0 0 0-39.52-14.4V528a16 16 0 0 0-16-16h-36.8a16 16 0 0 0-16 16v51.84a158.88 158.88 0 0 0-26.88 8.48l-29.76-42.4a16 16 0 0 0-22.24-4L592 563.04a16 16 0 0 0-4 22.24l29.76 42.56a160 160 0 0 0-17.12 22.24l-48-17.76a16 16 0 0 0-20.48 9.6l-12.64 34.72a16 16 0 0 0 9.6 20.48l48 17.76A160 160 0 0 0 576 736v7.04l-50.24 13.44a16 16 0 0 0-11.36 19.52l9.6 35.68a16 16 0 0 0 19.52 11.36l50.08-13.44a160 160 0 0 0 15.2 23.68L576 873.12a16 16 0 0 0 1.92 22.88l28.32 23.68a16 16 0 0 0 22.56-1.92l33.28-39.68a158.72 158.72 0 0 0 39.52 14.4V944a16 16 0 0 0 16 16h36.96a16 16 0 0 0 16-16v-51.84a158.88 158.88 0 0 0 26.88-8.48l29.76 42.4a16 16 0 0 0 22.24 4L880 908.96a16 16 0 0 0 4-22.24l-29.76-42.56a160 160 0 0 0 17.12-22.24l48 17.76a16 16 0 0 0 20.48-9.6l12.64-34.72a16 16 0 0 0-8.48-20.64zM736 832a96 96 0 1 1 96-96 96 96 0 0 1-96 96zM704 304a32 32 0 0 0-32-32H224a32 32 0 0 0 0 64h448a32 32 0 0 0 32-32zM640 453.28a32 32 0 0 0-32-32H224a32 32 0 1 0 0 64h384a32 32 0 0 0 32-32zM485.12 602.72a32 32 0 0 0-32-32H224a32 32 0 0 0 0 64h229.12a32 32 0 0 0 32-32zM224 720a32 32 0 0 0 0 64h208a32 32 0 0 0 0-64z" p-id="1130" fill="#707070"></path><path d="M496 896H160a32 32 0 0 1-32-32V192a32 32 0 0 1 32-32h144v32h288v-32h144a32 32 0 0 1 32 32v240a32 32 0 0 0 64 0V192a96 96 0 0 0-96-96h-144V64H304v32h-144a96 96 0 0 0-96 96v672a96 96 0 0 0 96 96h336a32 32 0 0 0 0-64z" p-id="1131" fill="#707070"></path></svg>