<?xml version="1.0" standalone="no"?>
<!DOCTYPE svg PUBLIC "-//W3C//DTD SVG 1.1//EN" "http://www.w3.org/Graphics/SVG/1.1/DTD/svg11.dtd"><svg t="1610353620990"
    class="icon" viewBox="0 0 1024 1024" version="1.1" xmlns="http://www.w3.org/2000/svg" p-id="1427" width="200"
    height="200" xmlns:xlink="http://www.w3.org/1999/xlink">
    <defs>
        <style type="text/css"></style>
    </defs>
    <path
        d="M102.485333 938.666667l56.021334-385.749334A42.666667 42.666667 0 0 1 128 512V298.666667a42.666667 42.666667 0 0 1 42.666667-42.666667h213.333333V85.333333a42.666667 42.666667 0 0 1 42.666667-42.666666h170.666666a42.666667 42.666667 0 0 1 42.666667 42.666666v170.666667h213.333333a42.666667 42.666667 0 0 1 42.666667 42.666667v213.333333a42.666667 42.666667 0 0 1-30.506667 40.917333L921.514667 938.666667c3.413333 23.552-17.066667 42.666667-45.781334 42.666666H148.266667c-28.714667 0-49.194667-19.114667-45.781334-42.666666z m92.416-42.624h140.288L356.693333 746.666667c1.706667-11.776 12.629333-21.333333 24.405334-21.333334h42.666666c11.776 0 19.968 9.557333 18.261334 21.333334l-21.461334 149.376h182.912l-21.418666-149.376a17.962667 17.962667 0 0 1 14.506666-20.992l3.754667-0.341334h42.666667c11.776 0 22.698667 9.557333 24.405333 21.333334l21.418667 149.376h140.288l-49.536-341.333334H244.437333l-49.536 341.333334z m18.432-554.666667V469.333333h597.333334V341.376L554.666667 341.333333V128.042667h-85.333334V341.333333l-256 0.042667z"
        p-id="1428" fill="#f2f2f2"></path>
</svg>