<?xml version="1.0" standalone="no"?><!DOCTYPE svg PUBLIC "-//W3C//DTD SVG 1.1//EN" "http://www.w3.org/Graphics/SVG/1.1/DTD/svg11.dtd"><svg t="1619614325771" class="icon" viewBox="0 0 1024 1024" version="1.1" xmlns="http://www.w3.org/2000/svg" p-id="546" xmlns:xlink="http://www.w3.org/1999/xlink" width="200" height="200"><defs><style type="text/css"></style></defs><path d="M964.544 331.008a64 64 0 0 1 0 90.496L421.504 964.48a64 64 0 0 1-90.496 0L59.456 692.992a64 64 0 0 1 0-90.496L602.496 59.52a64 64 0 0 1 90.496 0l271.552 271.552z m-543.04 361.984l-135.808-135.68A64 64 0 0 0 195.2 647.68l135.808 135.808a64 64 0 0 0 90.496-90.56zM512 421.504l-45.248-45.248a64 64 0 1 0-90.496 90.496L421.504 512A64 64 0 1 0 512 421.504z m271.552-90.496L647.68 195.2a64 64 0 1 0-90.496 90.496l135.744 135.808a64 64 0 1 0 90.56-90.496z" p-id="547" fill="#707070"></path></svg>