<?xml version="1.0" standalone="no"?>
<!DOCTYPE svg PUBLIC "-//W3C//DTD SVG 1.1//EN" "http://www.w3.org/Graphics/SVG/1.1/DTD/svg11.dtd"><svg t="1610354566693"
    class="icon" viewBox="0 0 1024 1024" version="1.1" xmlns="http://www.w3.org/2000/svg" p-id="3454"
    xmlns:xlink="http://www.w3.org/1999/xlink" width="200" height="200">
    <defs>
        <style type="text/css"></style>
    </defs>
    <path
        d="M267 769.76H65.87v64H267a83.82 83.82 0 0 1 0-64zM422.35 769.76a83.82 83.82 0 0 1 0 64h539.52v-64zM344.7 843.76a41.82 41.82 0 0 1-27.19-10H267a84 84 0 0 0 155.3 0h-50.41a41.82 41.82 0 0 1-27.19 10zM344.7 759.76a41.82 41.82 0 0 1 27.19 10h50.46a84 84 0 0 0-155.3 0h50.46a41.82 41.82 0 0 1 27.19-10z"
        p-id="3455" fill="#f2f2f2"></path>
    <path
        d="M302.7 801.76a41.9 41.9 0 0 1 14.81-32H267a83.82 83.82 0 0 0 0 64h50.46a41.9 41.9 0 0 1-14.76-32zM422.35 769.76h-50.46a42 42 0 0 1 0 64h50.46a83.82 83.82 0 0 0 0-64zM267 183.24H65.87v64H267a83.82 83.82 0 0 1 0-64zM422.35 183.24a83.82 83.82 0 0 1 0 64h539.52v-64zM344.7 257.24a41.82 41.82 0 0 1-27.19-10H267a84 84 0 0 0 155.3 0h-50.41a41.82 41.82 0 0 1-27.19 10zM344.7 173.24a41.82 41.82 0 0 1 27.19 10h50.46a84 84 0 0 0-155.3 0h50.46a41.82 41.82 0 0 1 27.19-10z"
        p-id="3456" fill="#f2f2f2"></path>
    <path
        d="M302.7 215.24a41.9 41.9 0 0 1 14.81-32H267a83.82 83.82 0 0 0 0 64h50.46a41.9 41.9 0 0 1-14.76-32zM422.35 183.24h-50.46a42 42 0 0 1 0 64h50.46a83.82 83.82 0 0 0 0-64zM761.22 483.41h201.17v64H761.22a83.82 83.82 0 0 0 0-64zM605.91 483.41a83.82 83.82 0 0 0 0 64H66.39v-64zM683.56 557.41a41.82 41.82 0 0 0 27.19-10h50.46a84 84 0 0 1-155.3 0h50.46a41.82 41.82 0 0 0 27.19 10zM683.56 473.41a41.82 41.82 0 0 0-27.19 10h-50.46a84 84 0 0 1 155.3 0h-50.46a41.82 41.82 0 0 0-27.19-10z"
        p-id="3457" fill="#f2f2f2"></path>
    <path
        d="M725.56 515.41a41.9 41.9 0 0 0-14.81-32h50.46a83.82 83.82 0 0 1 0 64h-50.46a41.9 41.9 0 0 0 14.81-32zM605.91 483.41h50.46a42 42 0 0 0 0 64h-50.46a83.82 83.82 0 0 1 0-64z"
        p-id="3458" fill="#f2f2f2"></path>
</svg>