<?xml version="1.0" standalone="no"?><!DOCTYPE svg PUBLIC "-//W3C//DTD SVG 1.1//EN" "http://www.w3.org/Graphics/SVG/1.1/DTD/svg11.dtd"><svg t="1610358413381" class="icon" viewBox="0 0 1024 1024" version="1.1" xmlns="http://www.w3.org/2000/svg" p-id="4879" xmlns:xlink="http://www.w3.org/1999/xlink" width="200" height="200"><defs><style type="text/css"></style></defs><path d="M512 126.592c-212.032 0-384 43.072-384 96.192 0 0 0 640 0 641.088C128 916.928 299.968 960 512 960c175.04 0 322.496-29.376 368.704-69.504C889.664 884.8 896 875.264 896 863.808L896 222.72C896 169.6 724.032 126.592 512 126.592zM512 190.656c129.216 0 223.872 15.872 277.952 32.064C735.872 238.848 641.216 254.784 512 254.784S288.128 238.848 234.048 222.72C288.128 206.592 382.784 190.656 512 190.656zM832 831.744c-9.344 24.064-42.048 32.064-42.048 32.064-54.08 16.128-148.736 32.064-277.952 32.064s-223.872-15.936-277.952-32.064C192 850.432 192 831.744 192 831.744L192 275.904c68.736 25.856 186.368 43.008 320 43.008s251.264-17.152 320-43.008L832 831.744z" p-id="4880" fill="#707070"></path></svg>