<?xml version="1.0" standalone="no"?><!DOCTYPE svg PUBLIC "-//W3C//DTD SVG 1.1//EN" "http://www.w3.org/Graphics/SVG/1.1/DTD/svg11.dtd"><svg t="1621261645191" class="icon" viewBox="0 0 1024 1024" version="1.1" xmlns="http://www.w3.org/2000/svg" p-id="5418" xmlns:xlink="http://www.w3.org/1999/xlink" width="200" height="200"><defs><style type="text/css"></style></defs><path d="M894.976 1023.488H128c-70.144 0-128-56.832-128-128V128C0 57.856 56.832 0 128 0h767.488c70.144 0 128 56.832 128 128v767.488c-0.512 70.656-57.856 128-128.512 128z m64-894.976c0-35.328-28.672-64-64-64H128c-35.328 0-64 28.672-64 64V896c0 35.328 28.672 64 64 64h767.488c35.328 0 64-28.672 64-64V128.512h-0.512z m-107.52 363.52c-17.92 0-31.744-14.336-31.744-31.744l1.024-210.432-217.6 216.576-45.056-45.056 217.6-217.6h-211.968c-17.92 0-31.744-14.336-31.744-31.744 0-17.408 14.336-31.744 31.744-31.744h286.72c8.704 0 16.896 3.584 23.04 9.728 6.144 5.12 9.728 12.8 9.728 22.528V460.8c0 16.384-13.824 31.232-31.744 31.232z m-392.704 391.68h-286.72c-8.704 0-16.896-3.584-23.04-9.728-6.144-5.12-9.728-12.8-9.728-22.528v-287.744c0-17.92 14.336-31.744 31.744-31.744 17.92 0 31.744 14.336 31.744 31.744l-1.024 210.432 217.6-216.576 45.056 45.056-217.6 217.6h211.968c17.92 0 31.744 14.336 31.744 31.744 0 16.896-13.824 31.744-31.744 31.744z m0 0" p-id="5419" fill="#ffffff"></path></svg>