<?xml version="1.0" standalone="no"?><!DOCTYPE svg PUBLIC "-//W3C//DTD SVG 1.1//EN" "http://www.w3.org/Graphics/SVG/1.1/DTD/svg11.dtd"><svg t="1610961759881" class="icon" viewBox="0 0 1024 1024" version="1.1" xmlns="http://www.w3.org/2000/svg" p-id="4168" xmlns:xlink="http://www.w3.org/1999/xlink" width="200" height="200"><defs><style type="text/css"></style></defs><path d="M395.983683 156.682505c17.682731 0 32.017204-14.142092 32.017204-31.588439L428.000887 94.27413c0-17.446347-14.334473-31.591509-32.017204-31.591509-17.680684 0-32.017204 14.145162-32.017204 31.591509l0 30.819936C363.966479 142.540414 378.302999 156.682505 395.983683 156.682505zM624.535029 156.682505c17.682731 0 32.020274-14.142092 32.020274-31.588439L656.555304 94.27413c0-17.446347-14.337543-31.591509-32.020274-31.591509-17.680684 0-32.017204 14.145162-32.017204 31.591509l0 30.819936C592.517825 142.540414 606.854345 156.682505 624.535029 156.682505zM496.338299 894.561999 254.115582 894.561999c-41.195238 0-74.707492-33.06814-74.707492-73.712839L179.408089 210.106252c0-40.644699 33.513278-73.709769 74.707492-73.709769 17.682731 0 32.020274-14.145162 32.020274-31.591509 0-17.446347-14.337543-31.591509-32.020274-31.591509-76.505441 0-138.745994 61.407582-138.745994 136.892787l0 610.743932c0 75.484182 62.23953 136.891763 138.745994 136.891763L496.338299 957.741947c17.682731 0 32.017204-14.145162 32.017204-31.591509C528.356526 908.704091 514.022053 894.561999 496.338299 894.561999zM905.146055 210.106252c0-75.484182-62.2426-136.892787-138.742924-136.892787-17.688871 0-32.020274 14.145162-32.020274 31.591509 0 17.446347 14.331403 31.591509 32.020274 31.591509 41.189098 0 74.707492 33.06507 74.707492 73.709769l0 431.731862c0 1.037632 0.212848 2.022053 0.311085 3.035126-3.203972 5.528923-11.322883 14.610766-30.493501 14.610766L658.706293 659.484006c-47.015803 0-95.081519 10.093892-95.081519 84.940554l0 133.904733c0 38.575574 15.285125 63.987337 45.530986 75.571163 6.989181 2.6432 13.654998 3.867074 20.116153 3.867074 20.560268 0 39.054481-12.391215 59.201333-30.774911 0.537236-0.487094 1.056052-0.994654 1.563612-1.526773 215.109196-225.14783 215.109196-261.234723 215.109196-273.097912 0-1.895163-0.179079-3.761674-0.502443-5.584182 0.257873-1.62194 0.502443-3.251044 0.502443-4.946662L905.146055 210.106252zM644.214231 881.320417c-7.000438 6.324032-11.683087 9.766434-14.545274 11.614525-0.789992-1.935072-2.00568-6.257517-2.00568-14.608719L627.663276 744.422514c0-14.379499 2.13257-18.407232 1.963725-18.407232 0 0 0 0-0.005117 0 0.924045-0.605797 6.344498-3.351328 29.084409-3.351328l128.375809 0C748.214886 769.160941 694.340885 828.813552 644.214231 881.320417zM745.063103 521.271154 275.458679 521.271154c-17.682731 0-32.020274 14.145162-32.020274 31.591509 0 17.446347 14.337543 31.591509 32.020274 31.591509L745.063103 584.454172c17.685801 0 32.017204-14.145162 32.017204-31.591509C777.081331 535.415292 762.748904 521.271154 745.063103 521.271154zM745.063103 363.320773 275.458679 363.320773c-17.682731 0-32.020274 14.142092-32.020274 31.591509 0 17.446347 14.337543 31.588439 32.020274 31.588439L745.063103 426.500721c17.685801 0 32.017204-14.142092 32.017204-31.588439C777.081331 377.462864 762.748904 363.320773 745.063103 363.320773z" p-id="4169"></path></svg>