<?xml version="1.0" standalone="no"?><!DOCTYPE svg PUBLIC "-//W3C//DTD SVG 1.1//EN" "http://www.w3.org/Graphics/SVG/1.1/DTD/svg11.dtd"><svg t="1608087164993" class="icon" viewBox="0 0 1024 1024" version="1.1" xmlns="http://www.w3.org/2000/svg" p-id="1950" xmlns:xlink="http://www.w3.org/1999/xlink" width="200" height="200"><defs><style type="text/css"></style></defs><path d="M820 547.88v-35.552l-9.824 1.128-128.16 22.304V313.28l-35.944 4.104v215.4l-111.536-34.328a18 18 0 0 0-22.464 11.88 17.976 17.976 0 0 0 11.904 22.464l122.104 37.592v211.096l23.552 6.312 12.392-1.416V572.248l120.552-20.984 10.208-1.904-0.008-0.2 7.224-1.28z" p-id="1951" fill="#f2f2f2"></path><path d="M820 547.88l-7.224 1.28 0.008 0.2 7.216-1.344zM802.568 551.264l10.216-1.768v-0.136z" p-id="1952" fill="#f2f2f2"></path><path d="M820 548.016l-7.216 1.344v0.136l7.216-1.264zM810.176 513.456l9.824-1.128v-0.584zM879.704 536.856v-31.344l-59.704 6.816v35.552l13.2-2.336z" p-id="1953" fill="#f2f2f2"></path><path d="M833.2 545.544l-13.2 2.336v0.136zM813.336 604.8v1.496l0.776-0.088-0.04-1.544z" p-id="1954" fill="#f2f2f2"></path><path d="M873.04 501.72l-53.912 10.072v36.24l53.912-9.52zM682.016 786.384l-12.392 1.416 12.392 3.32zM412.432 628.832a17.968 17.968 0 1 0-35.952 0v80.36l31.592 8.472 4.352 1.168v-90zM412.432 718.832l-4.36-1.176 4.36 1.176z" p-id="1955" fill="#f2f2f2"></path><path d="M408.072 717.656l-31.584-8.472v10.88l23.904-4.464z" p-id="1956" fill="#f2f2f2"></path><path d="M262.896 391.64c8.808 17.464 89.808 131.624 114.432 166.2a26.952 26.952 0 0 0 21.952 11.312h0.072a26.96 26.96 0 0 0 21.976-11.44c24.536-34.856 105.232-149.84 113.512-165.8 10.888-20.944 16.872-45.328 16.872-68.664 0-84.24-68.544-152.768-152.768-152.768s-152.768 68.528-152.768 152.768c0 23.32 5.616 46.312 16.712 68.352a0.104 0.104 0 0 1 0.008 0.04z m136.056-167.224c54.496 0 98.848 44.344 98.848 98.848 0 14.632-3.928 30.6-10.76 43.752-4.704 8.704-45.496 67.904-87.88 128.432-38.912-55.048-83-118.36-88.128-128.112-7.248-14.448-10.936-29.272-10.936-44.08 0.008-54.496 44.36-98.84 98.856-98.84z" p-id="1957" fill="#f2f2f2"></path><path d="M354.024 323.296a44.936 44.936 0 1 0 89.872 0 44.936 44.936 0 0 0-89.872 0z" p-id="1958" fill="#f2f2f2"></path><path d="M879.704 775.92c0 13.64-8.728 24.704-19.504 24.704-10.776 0-19.504-11.064-19.504-24.704V236.336c0-13.648 8.728-24.704 19.504-24.704 10.776 0 19.504 11.056 19.504 24.704V775.92zM412.432 744.016c0 2.136-8.04 3.856-17.968 3.856-9.936 0-17.976-1.728-17.976-3.856v-84.24c0-2.128 8.04-3.848 17.976-3.848 9.928 0 17.968 1.728 17.968 3.848v84.24zM681.928 803.144c0 13.288-8.04 24.04-17.968 24.04s-17.976-10.752-17.976-24.04V278.32c0-13.24 8.048-24 17.976-24 9.928 0 17.968 10.76 17.968 24v524.824zM195.704 775.92c0 13.64-8.728 24.704-19.504 24.704-10.776 0-19.504-11.064-19.504-24.704V236.336c0-13.648 8.728-24.704 19.504-24.704 10.776 0 19.504 11.056 19.504 24.704V775.92z" p-id="1959" fill="#f2f2f2"></path><path d="M664.504 286.56c-5.056 0.92-10.736-6.912-12.656-17.512-1.928-10.6 0.6-19.936 5.664-20.848l200.32-36.504c5.072-0.92 10.744 6.92 12.664 17.512 1.928 10.6-0.6 19.936-5.672 20.848l-200.32 36.504zM664.504 838.056c-5.056 0.92-10.736-6.904-12.656-17.504-1.928-10.6 0.6-19.928 5.664-20.848l200.32-36.504c5.072-0.912 10.744 6.92 12.664 17.512 1.928 10.6-0.6 19.936-5.672 20.856l-200.32 36.488zM176.504 800.552c-5.056 0.92-10.736-6.904-12.656-17.504-1.928-10.6 0.6-19.928 5.664-20.848l200.32-36.504c5.072-0.912 10.744 6.92 12.664 17.512 1.928 10.6-0.6 19.936-5.672 20.856l-200.32 36.488z" p-id="1960" fill="#f2f2f2"></path><path d="M368.384 763.72c-7.296-1.872-11.088-11.832-8.408-22.248 2.672-10.456 10.744-17.4 18.048-15.536l289.216 73.848c7.296 1.896 11.104 11.856 8.424 22.264-2.68 10.464-10.752 17.416-18.08 15.544l-289.2-73.872zM568.104 258.072c-2.44-0.744-1.832-9.696 1.344-19.984 3.176-10.296 7.72-18.024 10.16-17.272l96.272 29.736c2.424 0.752 1.824 9.704-1.352 19.992-3.184 10.288-7.728 18.024-10.168 17.272l-96.256-29.744z" p-id="1961" fill="#f2f2f2"></path></svg>