<?xml version="1.0" standalone="no"?>
<!DOCTYPE svg PUBLIC "-//W3C//DTD SVG 1.1//EN" "http://www.w3.org/Graphics/SVG/1.1/DTD/svg11.dtd"><svg t="1610353820765"
    class="icon" viewBox="0 0 1024 1024" version="1.1" xmlns="http://www.w3.org/2000/svg" p-id="2248"
    xmlns:xlink="http://www.w3.org/1999/xlink" width="200" height="200">
    <defs>
        <style type="text/css"></style>
    </defs>
    <path
        d="M333.263 269.428c0 32.932-26.678 59.611-59.611 59.611h-119.228c-32.937 0-59.611-26.678-59.611-59.611v-119.228c0-32.937 26.707-59.611 59.611-59.611h119.228c32.932 0 59.611 26.674 59.611 59.611v119.228zM333.263 269.428z"
        p-id="2249" fill="#f2f2f2"></path>
    <path
        d="M631.324 269.428c0 32.932-26.678 59.611-59.611 59.611h-119.228c-32.937 0-59.611-26.678-59.611-59.611v-119.228c0-32.937 26.674-59.611 59.611-59.611h119.228c32.932 0 59.611 26.674 59.611 59.611v119.228zM631.324 269.428z"
        p-id="2250" fill="#f2f2f2"></path>
    <path
        d="M929.382 269.428c0 32.932-26.678 59.611-59.611 59.611h-119.229c-32.937 0-59.611-26.678-59.611-59.611v-119.228c0-32.937 26.707-59.611 59.611-59.611h119.228c32.932 0 59.611 26.674 59.611 59.611v119.228h0.001zM929.382 269.428z"
        p-id="2251" fill="#f2f2f2"></path>
    <path
        d="M333.263 567.488c0 32.932-26.678 59.611-59.611 59.611h-119.228c-32.937 0-59.611-26.678-59.611-59.611v-119.228c0-32.937 26.707-59.611 59.611-59.611h119.228c32.932 0 59.611 26.674 59.611 59.611v119.228zM333.263 567.488z"
        p-id="2252" fill="#f2f2f2"></path>
    <path
        d="M631.324 567.488c0 32.932-26.678 59.611-59.611 59.611h-119.228c-32.937 0-59.611-26.678-59.611-59.611v-119.228c0-32.937 26.674-59.611 59.611-59.611h119.228c32.932 0 59.611 26.674 59.611 59.611v119.228zM631.324 567.488z"
        p-id="2253" fill="#f2f2f2"></path>
    <path
        d="M929.382 567.488c0 32.932-26.678 59.611-59.611 59.611h-119.229c-32.937 0-59.611-26.678-59.611-59.611v-119.228c0-32.937 26.707-59.611 59.611-59.611h119.228c32.932 0 59.611 26.674 59.611 59.611v119.228h0.001zM929.382 567.488z"
        p-id="2254" fill="#f2f2f2"></path>
    <path
        d="M333.263 865.547c0 32.932-26.678 59.611-59.611 59.611h-119.228c-32.937 0-59.611-26.678-59.611-59.611v-119.228c0-32.937 26.707-59.611 59.611-59.611h119.228c32.932 0 59.611 26.674 59.611 59.611v119.228zM333.263 865.547z"
        p-id="2255" fill="#f2f2f2"></path>
    <path
        d="M631.324 865.547c0 32.932-26.678 59.611-59.611 59.611h-119.228c-32.937 0-59.611-26.678-59.611-59.611v-119.228c0-32.937 26.674-59.611 59.611-59.611h119.228c32.932 0 59.611 26.674 59.611 59.611v119.228zM631.324 865.547z"
        p-id="2256" fill="#f2f2f2"></path>
    <path
        d="M929.382 865.547c0 32.932-26.678 59.611-59.611 59.611h-119.229c-32.937 0-59.611-26.678-59.611-59.611v-119.228c0-32.937 26.707-59.611 59.611-59.611h119.228c32.932 0 59.611 26.674 59.611 59.611v119.228h0.001zM929.382 865.547z"
        p-id="2257" fill="#f2f2f2"></path>
</svg>