<?xml version="1.0" standalone="no"?>
<!DOCTYPE svg PUBLIC "-//W3C//DTD SVG 1.1//EN" "http://www.w3.org/Graphics/SVG/1.1/DTD/svg11.dtd"><svg t="1610361145050"
    class="icon" viewBox="0 0 1024 1024" version="1.1" xmlns="http://www.w3.org/2000/svg" p-id="2554"
    xmlns:xlink="http://www.w3.org/1999/xlink" width="200" height="200">
    <defs>
        <style type="text/css"></style>
    </defs>
    <path
        d="M873.84615406 844.30769188c-22.15384594-22.15384594-36.92307656-59.07692344-36.9230775-88.61538375 0-36.92307656 14.76923062-66.46153875 44.30769281-88.61538469 44.30769188-36.92307656 66.46153875-88.61538469 66.46153875-140.30769281 0-59.07692344-22.15384594-110.76923063-59.07692343-147.69230719l-14.76923063-14.76923156c-22.15384594-22.15384594-36.92307656-59.07692344-36.9230775-88.61538375 0-36.92307656 14.76923062-66.46153875 44.30769281-88.61538469l-88.61538468-59.07692344c-44.30769188 29.53846125-66.46153875 81.23076937-73.84615407 140.30769188 0 51.69230812 22.15384594 110.76923063 59.07692344 147.69230812l14.76923063 14.76923063c22.15384594 22.15384594 36.92307656 59.07692344 36.92307656 88.61538468 0 36.92307656-14.76923062 66.46153875-44.30769188 88.61538469-36.92307656 36.92307656-59.07692344 88.61538469-66.46153875 140.30769188 0 51.69230812 22.15384594 110.76923063 59.07692344 147.69230812l96-51.69230812zM187.07692344 748.30769188c0-36.92307656 14.76923062-66.46153875 44.30769187-88.61538375 44.30769188-36.92307656 66.46153875-88.61538469 66.46153875-140.30769282 0-59.07692344-22.15384594-110.76923063-59.07692343-147.69230718l-14.76923063-14.76923157c-22.15384594-22.15384594-36.92307656-51.69230812-36.92307656-88.61538468s14.76923062-66.46153875 44.30769187-88.61538375l-88.61538468-59.07692344c-44.30769188 36.92307656-66.46153875 88.61538469-73.84615407 147.69230719 0 51.69230812 22.15384594 110.76923063 59.07692344 147.69230812l14.76923063 14.76923063c29.53846125 22.15384594 44.30769188 51.69230812 36.9230775 88.61538468 0 29.53846125-14.76923062 66.46153875-36.9230775 88.61538469-44.30769188 36.92307656-66.46153875 88.61538469-73.84615407 140.30769188 0 51.69230812 22.15384594 110.76923063 59.07692344 147.69230812l96-51.69230812c-22.15384594-29.53846125-36.92307656-59.07692344-36.92307656-96zM386.46153875 275.69230812c14.76923062 14.76923062 22.15384594 22.15384594 29.53846125 36.92307657L689.23076937 39.38461531H593.23076937l-221.53846125 221.53846125 14.76923063 14.76923156zM615.38461531 356.92307656L334.76923063 630.15384594v22.15384594c0 22.15384594 7.38461531 36.92307656 14.76923062 59.07692343l288-288c-14.76923062-22.15384594-22.15384594-44.30769188-22.15384594-66.46153875z"
        p-id="2555" fill="#707070"></path>
    <path
        d="M416 977.23076937l258.46153875-258.46153875c7.38461531-44.30769188 7.38461531-36.92307656 14.76923063-59.0769225 7.38461531-36.92307656 29.53846125-51.69230812 36.92307656-81.23076937l-354.46153781 354.46153781 44.30769187 44.30769281z"
        p-id="2556" fill="#707070"></path>
</svg>