<?xml version="1.0" standalone="no"?>
<!DOCTYPE svg PUBLIC "-//W3C//DTD SVG 1.1//EN" "http://www.w3.org/Graphics/SVG/1.1/DTD/svg11.dtd"><svg t="1610705500603"
    class="icon" viewBox="0 0 1024 1024" version="1.1" xmlns="http://www.w3.org/2000/svg" p-id="2539"
    xmlns:xlink="http://www.w3.org/1999/xlink" width="200" height="200">
    <defs>
        <style type="text/css"></style>
    </defs>
    <path
        d="M147.748571 1024h728.502858c61.147429 0 111.177143-49.005714 111.177142-103.497143V103.497143C987.428571 43.52 937.398857 0 876.251429 0H147.748571C86.601143 0 36.571429 49.005714 36.571429 103.497143V915.017143C36.571429 974.994286 86.601143 1024 147.748571 1024zM114.395429 103.497143c0-16.384 16.676571-32.694857 33.353142-32.694857h728.502858c16.676571 0 33.353143 16.310857 33.353142 32.694857V915.017143c0 16.310857-16.676571 32.621714-33.353142 32.621714H147.748571c-16.676571 0-33.353143-16.310857-33.353142-32.621714V103.497143z"
        fill="#ffffff" p-id="2540"></path>
    <path
        d="M458.166857 361.618286h345.746286c21.211429 0 37.229714-14.774857 37.229714-34.523429 0-19.748571-15.945143-34.523429-37.302857-34.523428H458.24c-21.284571 0-37.302857 14.774857-37.302857 34.523428 0 19.748571 16.018286 34.523429 37.302857 34.523429z m0 177.517714h345.746286c21.211429 0 37.229714-14.774857 37.229714-34.523429 0-19.748571-15.945143-29.622857-37.302857-29.622857H458.24c-21.284571 0-37.302857 14.848-37.302857 34.523429 0 19.748571 21.284571 29.622857 37.302857 29.622857z m0 192.292571h345.746286c21.211429 0 37.229714-14.774857 37.229714-34.523428 0-19.748571-15.945143-34.523429-37.302857-34.523429H458.24c-21.284571 0-37.302857 14.774857-37.302857 34.523429 5.339429 19.748571 21.284571 34.523429 37.302857 34.523428zM293.229714 361.618286h31.890286c21.284571 0 37.302857-14.774857 37.302857-34.523429 0-19.748571-21.284571-29.622857-37.302857-29.622857H293.302857c-21.211429 0-37.229714 14.848-37.229714 29.622857s15.945143 34.523429 37.302857 34.523429z m0 177.517714h31.890286c21.284571 0 37.302857-14.774857 37.302857-34.523429 0-19.748571-16.018286-29.622857-37.302857-29.622857H293.302857c-21.211429 0-37.229714 14.848-37.229714 34.523429 0 19.748571 15.945143 29.622857 37.302857 29.622857z m0 192.292571h31.890286c21.284571 0 37.302857-14.774857 37.302857-34.523428 0-19.748571-16.018286-34.523429-37.302857-34.523429H293.302857c-21.211429 0-37.229714 14.774857-37.229714 34.523429 0 19.748571 15.945143 34.523429 37.302857 34.523428z"
        fill="#ffffff" p-id="2541"></path>
</svg>