<?xml version="1.0" standalone="no"?>
<!DOCTYPE svg PUBLIC "-//W3C//DTD SVG 1.1//EN" "http://www.w3.org/Graphics/SVG/1.1/DTD/svg11.dtd"><svg t="1610961037578"
    class="icon" viewBox="0 0 1024 1024" version="1.1" xmlns="http://www.w3.org/2000/svg" p-id="2565"
    xmlns:xlink="http://www.w3.org/1999/xlink" width="200" height="200">
    <defs>
        <style type="text/css"></style>
    </defs>
    <path
        d="M955.067 311.153v140.44H928.07V245.302h-29.998V98.631h-32V274.64h-29.999v146.681H809.5V215.975h-32v117.339h-31v87.997h-22V303.977H694V127.963h-32V480.5h-28.5V333.314h-32v87.997H576V245.308h-32v117.338h-25.166V39.961h-32.001v205.341H455.5v176.014h-27v-88.007h-32v29.333h-26V127.963h-32v176.009h-30.333v117.339H282.5v-88.007h-31.896V215.965h-32v205.351H196.5V274.64h-31V98.636h-32v146.666h-31v176.014H75.613v-88.007h-32V690.69h32v-88.003H102.5v176.008h31v146.674h32V749.36h31V602.687h22.104v173.326h32V690.69H282.5v-88.003h25.667v117.338H338.5v176.009h32V661.355h26v32h32v-90.668h27V749.36h31.333v234.678h32.001V661.355H544v88.005h32V602.687h25.5v88.003h32V542.5H662v353.534h32V720.025h30.5V602.687h22v88.003h31v88.005h32V602.687h26.573V748.36h29.999v179.675h32V776.013h29.998V576.087h26.997v140.44h32V311.153z"
        p-id="2566" fill="#f2f2f2"></path>
</svg>