<?xml version="1.0" standalone="no"?>
<!DOCTYPE svg PUBLIC "-//W3C//DTD SVG 1.1//EN" "http://www.w3.org/Graphics/SVG/1.1/DTD/svg11.dtd"><svg t="1610360159261"
    class="icon" viewBox="0 0 1024 1024" version="1.1" xmlns="http://www.w3.org/2000/svg" p-id="8532"
    xmlns:xlink="http://www.w3.org/1999/xlink" width="200" height="200">
    <defs>
        <style type="text/css"></style>
    </defs>
    <path
        d="M915.2 810.88H108.8a96 96 0 0 1-96-96V192a96 96 0 0 1 96-96h806.4A96 96 0 0 1 1011.2 192v524.8a96 96 0 0 1-96 94.08zM108.8 158.72a31.36 31.36 0 0 0-31.36 33.28v524.8a31.36 31.36 0 0 0 31.36 31.36h806.4a31.36 31.36 0 0 0 31.36-31.36V192a31.36 31.36 0 0 0-31.36-31.36z"
        fill="#707070" p-id="8533"></path>
    <path d="M687.36 794.24v72.32a64 64 0 0 1-64 64H401.28a64 64 0 0 1-64-64v-72.32" fill="#707070" p-id="8534"></path>
    <path d="M239.36 369.92m-32 0a32 32 0 1 0 64 0 32 32 0 1 0-64 0Z" fill="#707070" p-id="8535"></path>
    <path
        d="M816.64 401.92H347.52a32 32 0 0 1-32-32 32 32 0 0 1 32-32.64h469.12a32 32 0 0 1 32 32.64 32 32 0 0 1-32 32z"
        fill="#707070" p-id="8536"></path>
    <path d="M239.36 561.28m-32 0a32 32 0 1 0 64 0 32 32 0 1 0-64 0Z" fill="#707070" p-id="8537"></path>
    <path
        d="M816.64 593.28H347.52a32 32 0 0 1-32-32 32 32 0 0 1 32-32.64h469.12a32 32 0 0 1 32 32.64 32 32 0 0 1-32 32z"
        fill="#707070" p-id="8538"></path>
</svg>